<mxfile host="app.diagrams.net" modified="2020-06-12T03:28:12.851Z" agent="5.0 (Macintosh; Intel Mac OS X 10_15_4) AppleWebKit/605.1.15 (KHTML, like Gecko) Version/13.1 Safari/605.1.15" etag="zjS_XNFfhQz244Giv09h" version="13.2.3" type="github">
  <diagram id="aLvHG3xuKhXlgqFeEjVA" name="Page-1">
    <mxGraphModel dx="1022" dy="811" grid="1" gridSize="10" guides="1" tooltips="1" connect="1" arrows="1" fold="1" page="1" pageScale="1" pageWidth="827" pageHeight="1169" math="0" shadow="0">
      <root>
        <mxCell id="0" />
        <mxCell id="1" parent="0" />
        <mxCell id="_vnbvtdpVZEzhNfNlTJX-12" value="&lt;div style=&quot;text-align: left&quot;&gt;RedPacketManager&lt;/div&gt;&lt;div style=&quot;text-align: left&quot;&gt;[Components]&lt;/div&gt;" style="rounded=1;whiteSpace=wrap;html=1;labelBackgroundColor=none;fillColor=#ffffff;fontColor=#000000;align=left;arcSize=5;strokeColor=#000000;verticalAlign=bottom;points=[[0.25,0,0],[0.5,0,0],[0.75,0,0],[1,0.25,0],[1,0.5,0],[1,0.75,0],[0.75,1,0],[0.5,1,0],[0.25,1,0],[0,0.75,0],[0,0.5,0],[0,0.25,0]];glass=0;" parent="1" vertex="1">
          <mxGeometry x="134" y="1030" width="560" height="340" as="geometry" />
        </mxCell>
        <mxCell id="_vnbvtdpVZEzhNfNlTJX-6" value="&lt;b&gt;user&lt;/b&gt;&lt;br&gt;&lt;div&gt;[Person]&lt;/div&gt;&lt;br&gt;&lt;div&gt;芒果TV用户&lt;/div&gt;" style="html=1;dashed=0;whitespace=wrap;fillColor=#DAE8FC;strokeColor=#6C8EBF;shape=mxgraph.c4.person;align=center;points=[[0.5,0,0],[1,0.5,0],[1,0.75,0],[0.75,1,0],[0.5,1,0],[0.25,1,0],[0,0.75,0],[0,0.5,0]];" parent="1" vertex="1">
          <mxGeometry x="130" y="50" width="160" height="130" as="geometry" />
        </mxCell>
        <mxCell id="_vnbvtdpVZEzhNfNlTJX-8" value="&lt;b&gt;芒果长连接&lt;/b&gt;&lt;br&gt;&lt;div&gt;[Software System]&lt;/div&gt;&lt;br&gt;&lt;div&gt;红包雨主题&lt;/div&gt;" style="rounded=1;whiteSpace=wrap;html=1;labelBackgroundColor=none;fillColor=#dae8fc;fontColor=#000000;align=center;arcSize=10;strokeColor=#6c8ebf;points=[[0.25,0,0],[0.5,0,0],[0.75,0,0],[1,0.25,0],[1,0.5,0],[1,0.75,0],[0.75,1,0],[0.5,1,0],[0.25,1,0],[0,0.75,0],[0,0.5,0],[0,0.25,0]];" parent="1" vertex="1">
          <mxGeometry x="330" y="70" width="160" height="110.00000000000001" as="geometry" />
        </mxCell>
        <mxCell id="_vnbvtdpVZEzhNfNlTJX-9" value="&lt;b&gt;广告SDK&lt;/b&gt;&lt;br&gt;&lt;div&gt;[Software System]&lt;/div&gt;&lt;br&gt;&lt;div&gt;红包雨通知&lt;/div&gt;" style="rounded=1;whiteSpace=wrap;html=1;labelBackgroundColor=none;fillColor=#dae8fc;fontColor=#000000;align=center;arcSize=10;strokeColor=#6c8ebf;points=[[0.25,0,0],[0.5,0,0],[0.75,0,0],[1,0.25,0],[1,0.5,0],[1,0.75,0],[0.75,1,0],[0.5,1,0],[0.25,1,0],[0,0.75,0],[0,0.5,0],[0,0.25,0]];" parent="1" vertex="1">
          <mxGeometry x="530" y="70" width="160" height="110.00000000000001" as="geometry" />
        </mxCell>
        <mxCell id="_vnbvtdpVZEzhNfNlTJX-10" value="MGRedPacketManager&lt;br&gt;&lt;div&gt;[Components&lt;span&gt;]&lt;/span&gt;&lt;/div&gt;&lt;br&gt;&lt;div&gt;红包雨管理组件&lt;/div&gt;" style="rounded=1;whiteSpace=wrap;html=1;labelBackgroundColor=none;fillColor=#f5f5f5;fontColor=#333333;align=center;arcSize=10;strokeColor=#666666;points=[[0.25,0,0],[0.5,0,0],[0.75,0,0],[1,0.25,0],[1,0.5,0],[1,0.75,0],[0.75,1,0],[0.5,1,0],[0.25,1,0],[0,0.75,0],[0,0.5,0],[0,0.25,0]];" parent="1" vertex="1">
          <mxGeometry x="330" y="350" width="160" height="110.00000000000001" as="geometry" />
        </mxCell>
        <mxCell id="_vnbvtdpVZEzhNfNlTJX-16" value="&lt;div style=&quot;text-align: left&quot;&gt;&lt;div style=&quot;text-align: center&quot;&gt;&lt;b&gt;启动app&lt;/b&gt;&lt;/div&gt;&lt;div style=&quot;text-align: center&quot;&gt;[&lt;span style=&quot;font-family: &amp;#34;menlo&amp;#34; ; background-color: rgb(255 , 255 , 255)&quot;&gt;&lt;font style=&quot;font-size: 11px&quot;&gt;updateRedPacketTheme&lt;/font&gt;&lt;/span&gt;]&lt;br&gt;&lt;/div&gt;&lt;/div&gt;" style="edgeStyle=none;rounded=0;html=1;entryX=0.25;entryY=0;jettySize=auto;orthogonalLoop=1;strokeColor=#A8A8A8;strokeWidth=2;fontColor=#000000;jumpStyle=none;dashed=1;exitX=0.5;exitY=1;exitDx=0;exitDy=0;exitPerimeter=0;entryDx=0;entryDy=0;entryPerimeter=0;" parent="1" source="_vnbvtdpVZEzhNfNlTJX-6" target="_vnbvtdpVZEzhNfNlTJX-10" edge="1">
          <mxGeometry width="200" relative="1" as="geometry">
            <mxPoint x="270" y="400" as="sourcePoint" />
            <mxPoint x="470" y="400" as="targetPoint" />
          </mxGeometry>
        </mxCell>
        <mxCell id="_vnbvtdpVZEzhNfNlTJX-17" value="&lt;div style=&quot;text-align: left&quot;&gt;&lt;div style=&quot;text-align: center&quot;&gt;&lt;b&gt;红包雨回调&lt;/b&gt;&lt;/div&gt;&lt;div style=&quot;text-align: center&quot;&gt;[rprain/rprainv2]&lt;/div&gt;&lt;/div&gt;" style="edgeStyle=none;rounded=0;html=1;jettySize=auto;orthogonalLoop=1;strokeColor=#A8A8A8;strokeWidth=2;fontColor=#000000;jumpStyle=none;dashed=1;exitX=0.5;exitY=1;exitDx=0;exitDy=0;exitPerimeter=0;" parent="1" source="_vnbvtdpVZEzhNfNlTJX-8" target="_vnbvtdpVZEzhNfNlTJX-10" edge="1">
          <mxGeometry width="200" relative="1" as="geometry">
            <mxPoint x="270" y="400" as="sourcePoint" />
            <mxPoint x="470" y="400" as="targetPoint" />
          </mxGeometry>
        </mxCell>
        <mxCell id="_vnbvtdpVZEzhNfNlTJX-18" value="&lt;div style=&quot;text-align: left&quot;&gt;&lt;div style=&quot;text-align: center&quot;&gt;&lt;b&gt;Description&lt;/b&gt;&lt;/div&gt;&lt;div style=&quot;text-align: center&quot;&gt;[technology]&lt;/div&gt;&lt;/div&gt;" style="edgeStyle=none;rounded=0;html=1;entryX=0.75;entryY=0;jettySize=auto;orthogonalLoop=1;strokeColor=#A8A8A8;strokeWidth=2;fontColor=#000000;jumpStyle=none;dashed=1;exitX=0.5;exitY=1;exitDx=0;exitDy=0;exitPerimeter=0;entryDx=0;entryDy=0;entryPerimeter=0;" parent="1" source="_vnbvtdpVZEzhNfNlTJX-9" target="_vnbvtdpVZEzhNfNlTJX-10" edge="1">
          <mxGeometry width="200" relative="1" as="geometry">
            <mxPoint x="270" y="400" as="sourcePoint" />
            <mxPoint x="470" y="400" as="targetPoint" />
          </mxGeometry>
        </mxCell>
        <mxCell id="_vnbvtdpVZEzhNfNlTJX-19" value="&lt;b&gt;user&lt;/b&gt;&lt;br&gt;&lt;div&gt;[Person]&lt;/div&gt;&lt;br&gt;&lt;div&gt;芒果TV用户&lt;/div&gt;" style="html=1;dashed=0;whitespace=wrap;fillColor=#DAE8FC;strokeColor=#6C8EBF;shape=mxgraph.c4.person;align=center;points=[[0.5,0,0],[1,0.5,0],[1,0.75,0],[0.75,1,0],[0.5,1,0],[0.25,1,0],[0,0.75,0],[0,0.5,0]];" parent="1" vertex="1">
          <mxGeometry x="130" y="570" width="160" height="130" as="geometry" />
        </mxCell>
        <mxCell id="_vnbvtdpVZEzhNfNlTJX-20" value="&lt;b&gt;芒果长连接&lt;/b&gt;&lt;br&gt;&lt;div&gt;[Software System]&lt;/div&gt;&lt;br&gt;&lt;div&gt;红包雨主题&lt;/div&gt;" style="rounded=1;whiteSpace=wrap;html=1;labelBackgroundColor=none;fillColor=#dae8fc;fontColor=#000000;align=center;arcSize=10;strokeColor=#6c8ebf;points=[[0.25,0,0],[0.5,0,0],[0.75,0,0],[1,0.25,0],[1,0.5,0],[1,0.75,0],[0.75,1,0],[0.5,1,0],[0.25,1,0],[0,0.75,0],[0,0.5,0],[0,0.25,0]];" parent="1" vertex="1">
          <mxGeometry x="330" y="590" width="160" height="110.00000000000001" as="geometry" />
        </mxCell>
        <mxCell id="_vnbvtdpVZEzhNfNlTJX-21" value="&lt;b&gt;广告SDK&lt;/b&gt;&lt;br&gt;&lt;div&gt;[Software System]&lt;/div&gt;&lt;br&gt;&lt;div&gt;红包雨通知&lt;/div&gt;" style="rounded=1;whiteSpace=wrap;html=1;labelBackgroundColor=none;fillColor=#dae8fc;fontColor=#000000;align=center;arcSize=10;strokeColor=#6c8ebf;points=[[0.25,0,0],[0.5,0,0],[0.75,0,0],[1,0.25,0],[1,0.5,0],[1,0.75,0],[0.75,1,0],[0.5,1,0],[0.25,1,0],[0,0.75,0],[0,0.5,0],[0,0.25,0]];" parent="1" vertex="1">
          <mxGeometry x="530" y="590" width="160" height="110.00000000000001" as="geometry" />
        </mxCell>
        <mxCell id="TqZwTsvRdTDMUk5iA1MC-20" style="edgeStyle=orthogonalEdgeStyle;rounded=0;orthogonalLoop=1;jettySize=auto;html=1;exitX=1;exitY=0.25;exitDx=0;exitDy=0;exitPerimeter=0;entryX=1;entryY=0.5;entryDx=0;entryDy=0;entryPerimeter=0;dashed=1;strokeColor=#000000;strokeWidth=1;" edge="1" parent="1" source="_vnbvtdpVZEzhNfNlTJX-22" target="TqZwTsvRdTDMUk5iA1MC-19">
          <mxGeometry relative="1" as="geometry" />
        </mxCell>
        <mxCell id="_vnbvtdpVZEzhNfNlTJX-22" value="MGRedPacketManager&lt;br&gt;&lt;div&gt;[Components&lt;span&gt;]&lt;/span&gt;&lt;/div&gt;&lt;br&gt;&lt;div&gt;红包雨管理组件&lt;/div&gt;" style="rounded=1;whiteSpace=wrap;html=1;labelBackgroundColor=none;fillColor=#f5f5f5;fontColor=#333333;align=center;arcSize=10;strokeColor=#666666;points=[[0.25,0,0],[0.5,0,0],[0.75,0,0],[1,0.25,0],[1,0.5,0],[1,0.75,0],[0.75,1,0],[0.5,1,0],[0.25,1,0],[0,0.75,0],[0,0.5,0],[0,0.25,0]];" parent="1" vertex="1">
          <mxGeometry x="330" y="870" width="160" height="110.00000000000001" as="geometry" />
        </mxCell>
        <mxCell id="_vnbvtdpVZEzhNfNlTJX-23" value="&lt;div style=&quot;text-align: left&quot;&gt;&lt;div style=&quot;text-align: center&quot;&gt;&lt;b&gt;启动app&lt;/b&gt;&lt;/div&gt;&lt;div style=&quot;text-align: center&quot;&gt;[&lt;span style=&quot;font-family: &amp;#34;menlo&amp;#34; ; background-color: rgb(255 , 255 , 255)&quot;&gt;&lt;font style=&quot;font-size: 11px&quot;&gt;updateRedPacketTheme&lt;/font&gt;&lt;/span&gt;]&lt;br&gt;&lt;/div&gt;&lt;/div&gt;" style="edgeStyle=none;rounded=0;html=1;entryX=0.25;entryY=0;jettySize=auto;orthogonalLoop=1;strokeColor=#A8A8A8;strokeWidth=2;fontColor=#000000;jumpStyle=none;dashed=1;exitX=0.5;exitY=1;exitDx=0;exitDy=0;exitPerimeter=0;entryDx=0;entryDy=0;entryPerimeter=0;" parent="1" source="_vnbvtdpVZEzhNfNlTJX-19" target="_vnbvtdpVZEzhNfNlTJX-22" edge="1">
          <mxGeometry width="200" relative="1" as="geometry">
            <mxPoint x="270" y="920" as="sourcePoint" />
            <mxPoint x="470" y="920" as="targetPoint" />
          </mxGeometry>
        </mxCell>
        <mxCell id="_vnbvtdpVZEzhNfNlTJX-24" value="&lt;div style=&quot;text-align: left&quot;&gt;&lt;div style=&quot;text-align: center&quot;&gt;&lt;b&gt;红包雨回调&lt;/b&gt;&lt;/div&gt;&lt;div style=&quot;text-align: center&quot;&gt;[rprain/rprainv2]&lt;/div&gt;&lt;/div&gt;" style="edgeStyle=none;rounded=0;html=1;jettySize=auto;orthogonalLoop=1;strokeColor=#A8A8A8;strokeWidth=2;fontColor=#000000;jumpStyle=none;dashed=1;exitX=0.5;exitY=1;exitDx=0;exitDy=0;exitPerimeter=0;" parent="1" source="_vnbvtdpVZEzhNfNlTJX-20" target="_vnbvtdpVZEzhNfNlTJX-22" edge="1">
          <mxGeometry width="200" relative="1" as="geometry">
            <mxPoint x="270" y="920" as="sourcePoint" />
            <mxPoint x="470" y="920" as="targetPoint" />
          </mxGeometry>
        </mxCell>
        <mxCell id="_vnbvtdpVZEzhNfNlTJX-25" value="&lt;div style=&quot;text-align: left&quot;&gt;&lt;div style=&quot;text-align: center&quot;&gt;&lt;b&gt;Description&lt;/b&gt;&lt;/div&gt;&lt;div style=&quot;text-align: center&quot;&gt;[technology]&lt;/div&gt;&lt;/div&gt;" style="edgeStyle=none;rounded=0;html=1;entryX=0.75;entryY=0;jettySize=auto;orthogonalLoop=1;strokeColor=#A8A8A8;strokeWidth=2;fontColor=#000000;jumpStyle=none;dashed=1;exitX=0.5;exitY=1;exitDx=0;exitDy=0;exitPerimeter=0;entryDx=0;entryDy=0;entryPerimeter=0;" parent="1" source="_vnbvtdpVZEzhNfNlTJX-21" target="_vnbvtdpVZEzhNfNlTJX-22" edge="1">
          <mxGeometry width="200" relative="1" as="geometry">
            <mxPoint x="270" y="920" as="sourcePoint" />
            <mxPoint x="470" y="920" as="targetPoint" />
          </mxGeometry>
        </mxCell>
        <mxCell id="_vnbvtdpVZEzhNfNlTJX-28" value="&lt;b&gt;红包雨皮肤&lt;/b&gt;&lt;br&gt;&lt;div&gt;&lt;br&gt;&lt;/div&gt;&lt;br&gt;&lt;div&gt;Description&lt;/div&gt;" style="rounded=1;whiteSpace=wrap;html=1;labelBackgroundColor=none;fillColor=#dae8fc;fontColor=#000000;align=center;arcSize=10;strokeColor=#6c8ebf;points=[[0.25,0,0],[0.5,0,0],[0.75,0,0],[1,0.25,0],[1,0.5,0],[1,0.75,0],[0.75,1,0],[0.5,1,0],[0.25,1,0],[0,0.75,0],[0,0.5,0],[0,0.25,0]];glass=0;" parent="1" vertex="1">
          <mxGeometry x="480" y="1050" width="160" height="70" as="geometry" />
        </mxCell>
        <mxCell id="_vnbvtdpVZEzhNfNlTJX-29" value="&lt;b&gt;红包雨角标&lt;/b&gt;&lt;br&gt;&lt;div&gt;&lt;br&gt;&lt;/div&gt;&lt;br&gt;&lt;div&gt;Description&lt;/div&gt;" style="rounded=1;whiteSpace=wrap;html=1;labelBackgroundColor=none;fillColor=#dae8fc;fontColor=#000000;align=center;arcSize=10;strokeColor=#6c8ebf;points=[[0.25,0,0],[0.5,0,0],[0.75,0,0],[1,0.25,0],[1,0.5,0],[1,0.75,0],[0.75,1,0],[0.5,1,0],[0.25,1,0],[0,0.75,0],[0,0.5,0],[0,0.25,0]];glass=0;" parent="1" vertex="1">
          <mxGeometry x="190" y="1050" width="160" height="70" as="geometry" />
        </mxCell>
        <mxCell id="_vnbvtdpVZEzhNfNlTJX-30" value="&lt;b&gt;红包雨主页面&lt;/b&gt;&lt;br&gt;&lt;div&gt;&lt;br&gt;&lt;/div&gt;&lt;br&gt;&lt;div&gt;Description&lt;/div&gt;" style="rounded=1;whiteSpace=wrap;html=1;labelBackgroundColor=none;fillColor=#dae8fc;fontColor=#000000;align=center;arcSize=10;strokeColor=#6c8ebf;points=[[0.25,0,0],[0.5,0,0],[0.75,0,0],[1,0.25,0],[1,0.5,0],[1,0.75,0],[0.75,1,0],[0.5,1,0],[0.25,1,0],[0,0.75,0],[0,0.5,0],[0,0.25,0]];glass=0;" parent="1" vertex="1">
          <mxGeometry x="190" y="1150" width="160" height="70" as="geometry" />
        </mxCell>
        <mxCell id="_vnbvtdpVZEzhNfNlTJX-31" value="&lt;b&gt;奖品领取&lt;/b&gt;&lt;br&gt;&lt;div&gt;&lt;br&gt;&lt;/div&gt;&lt;br&gt;&lt;div&gt;Description&lt;/div&gt;" style="rounded=1;whiteSpace=wrap;html=1;labelBackgroundColor=none;fillColor=#dae8fc;fontColor=#000000;align=center;arcSize=10;strokeColor=#6c8ebf;points=[[0.25,0,0],[0.5,0,0],[0.75,0,0],[1,0.25,0],[1,0.5,0],[1,0.75,0],[0.75,1,0],[0.5,1,0],[0.25,1,0],[0,0.75,0],[0,0.5,0],[0,0.25,0]];glass=0;" parent="1" vertex="1">
          <mxGeometry x="190" y="1250" width="160" height="70" as="geometry" />
        </mxCell>
        <mxCell id="_vnbvtdpVZEzhNfNlTJX-37" value="&lt;div style=&quot;text-align: left&quot;&gt;&lt;div style=&quot;text-align: center&quot;&gt;&lt;br&gt;&lt;/div&gt;&lt;/div&gt;" style="edgeStyle=orthogonalEdgeStyle;rounded=0;html=1;jettySize=auto;orthogonalLoop=1;strokeColor=#000000;strokeWidth=1;fontColor=#000000;jumpStyle=none;dashed=1;exitX=0;exitY=0.5;exitDx=0;exitDy=0;exitPerimeter=0;" parent="1" source="_vnbvtdpVZEzhNfNlTJX-22" target="_vnbvtdpVZEzhNfNlTJX-29" edge="1">
          <mxGeometry width="200" relative="1" as="geometry">
            <mxPoint x="340" y="935" as="sourcePoint" />
            <mxPoint x="200" y="1235" as="targetPoint" />
          </mxGeometry>
        </mxCell>
        <mxCell id="_vnbvtdpVZEzhNfNlTJX-38" value="&lt;div style=&quot;text-align: left&quot;&gt;&lt;div style=&quot;text-align: center&quot;&gt;&lt;br&gt;&lt;/div&gt;&lt;/div&gt;" style="edgeStyle=orthogonalEdgeStyle;rounded=0;html=1;jettySize=auto;orthogonalLoop=1;strokeColor=#000000;strokeWidth=1;fontColor=#000000;jumpStyle=none;dashed=1;exitX=1;exitY=0.5;exitDx=0;exitDy=0;exitPerimeter=0;entryX=0.5;entryY=0;entryDx=0;entryDy=0;entryPerimeter=0;" parent="1" source="_vnbvtdpVZEzhNfNlTJX-22" target="_vnbvtdpVZEzhNfNlTJX-28" edge="1">
          <mxGeometry width="200" relative="1" as="geometry">
            <mxPoint x="340" y="935" as="sourcePoint" />
            <mxPoint x="280" y="1060" as="targetPoint" />
          </mxGeometry>
        </mxCell>
        <mxCell id="_vnbvtdpVZEzhNfNlTJX-39" value="&lt;div style=&quot;text-align: left&quot;&gt;&lt;div style=&quot;text-align: center&quot;&gt;&lt;br&gt;&lt;/div&gt;&lt;/div&gt;" style="edgeStyle=orthogonalEdgeStyle;rounded=0;html=1;jettySize=auto;orthogonalLoop=1;strokeColor=#000000;strokeWidth=1;fontColor=#000000;jumpStyle=none;dashed=1;exitX=0;exitY=0.25;exitDx=0;exitDy=0;exitPerimeter=0;entryX=0;entryY=0.5;entryDx=0;entryDy=0;entryPerimeter=0;" parent="1" source="_vnbvtdpVZEzhNfNlTJX-22" target="_vnbvtdpVZEzhNfNlTJX-30" edge="1">
          <mxGeometry width="200" relative="1" as="geometry">
            <mxPoint x="340" y="935" as="sourcePoint" />
            <mxPoint x="280" y="1060" as="targetPoint" />
          </mxGeometry>
        </mxCell>
        <mxCell id="_vnbvtdpVZEzhNfNlTJX-40" value="&lt;div style=&quot;text-align: left&quot;&gt;&lt;div style=&quot;text-align: center&quot;&gt;&lt;br&gt;&lt;/div&gt;&lt;/div&gt;" style="edgeStyle=orthogonalEdgeStyle;rounded=0;html=1;jettySize=auto;orthogonalLoop=1;strokeColor=#000000;strokeWidth=1;fontColor=#000000;jumpStyle=none;dashed=1;exitX=0.5;exitY=1;exitDx=0;exitDy=0;exitPerimeter=0;" parent="1" source="_vnbvtdpVZEzhNfNlTJX-30" target="_vnbvtdpVZEzhNfNlTJX-31" edge="1">
          <mxGeometry width="200" relative="1" as="geometry">
            <mxPoint x="350" y="945" as="sourcePoint" />
            <mxPoint x="290" y="1070" as="targetPoint" />
          </mxGeometry>
        </mxCell>
        <mxCell id="TqZwTsvRdTDMUk5iA1MC-2" value="&lt;h2 id=&quot;ar.iPhone启动业务C4-一Context&quot; style=&quot;margin: 0px ; padding: 0px ; color: rgb(23 , 43 , 77) ; font-weight: normal ; font-size: 20px ; line-height: 1.5 ; letter-spacing: -0.008em ; border-bottom-color: rgb(255 , 255 , 255) ; font-family: , &amp;#34;blinkmacsystemfont&amp;#34; , &amp;#34;segoe ui&amp;#34; , &amp;#34;roboto&amp;#34; , &amp;#34;oxygen&amp;#34; , &amp;#34;ubuntu&amp;#34; , &amp;#34;fira sans&amp;#34; , &amp;#34;droid sans&amp;#34; , &amp;#34;helvetica neue&amp;#34; , sans-serif&quot;&gt;一 Context&lt;/h2&gt;" style="text;html=1;strokeColor=none;fillColor=none;align=center;verticalAlign=middle;whiteSpace=wrap;rounded=0;glass=0;" vertex="1" parent="1">
          <mxGeometry x="20" y="10" width="130" height="40" as="geometry" />
        </mxCell>
        <mxCell id="TqZwTsvRdTDMUk5iA1MC-3" value="&lt;h2 id=&quot;ar.iPhone启动业务C4-二Container&quot; style=&quot;margin: 30px 0px 0px ; padding: 0px ; color: rgb(23 , 43 , 77) ; font-weight: normal ; font-size: 20px ; line-height: 1.5 ; letter-spacing: -0.008em ; border-bottom-color: rgb(255 , 255 , 255) ; font-family: , &amp;#34;blinkmacsystemfont&amp;#34; , &amp;#34;segoe ui&amp;#34; , &amp;#34;roboto&amp;#34; , &amp;#34;oxygen&amp;#34; , &amp;#34;ubuntu&amp;#34; , &amp;#34;fira sans&amp;#34; , &amp;#34;droid sans&amp;#34; , &amp;#34;helvetica neue&amp;#34; , sans-serif&quot;&gt;二 Container&lt;/h2&gt;" style="text;html=1;strokeColor=none;fillColor=none;align=center;verticalAlign=middle;whiteSpace=wrap;rounded=0;glass=0;" vertex="1" parent="1">
          <mxGeometry x="17" y="490" width="160" height="50" as="geometry" />
        </mxCell>
        <mxCell id="TqZwTsvRdTDMUk5iA1MC-4" value="&lt;h2 id=&quot;ar.iPhone启动业务C4-三Components&quot; style=&quot;font-style: normal ; text-indent: 0px ; text-transform: none ; word-spacing: 0px ; text-decoration: none ; margin: 30px 0px 0px ; padding: 0px ; color: rgb(23 , 43 , 77) ; font-weight: normal ; font-size: 20px ; line-height: 1.5 ; letter-spacing: -0.008em ; border-bottom-color: rgb(255 , 255 , 255)&quot;&gt;三&amp;nbsp;&lt;span style=&quot;font-family: , &amp;#34;blinkmacsystemfont&amp;#34; , &amp;#34;segoe ui&amp;#34; , &amp;#34;roboto&amp;#34; , &amp;#34;oxygen&amp;#34; , &amp;#34;ubuntu&amp;#34; , &amp;#34;fira sans&amp;#34; , &amp;#34;droid sans&amp;#34; , &amp;#34;helvetica neue&amp;#34; , sans-serif ; letter-spacing: -0.008em&quot;&gt;Business&lt;/span&gt;&lt;/h2&gt;" style="text;whiteSpace=wrap;html=1;" vertex="1" parent="1">
          <mxGeometry x="40" y="1380" width="160" height="80" as="geometry" />
        </mxCell>
        <mxCell id="TqZwTsvRdTDMUk5iA1MC-5" value="MGRedPacketManager&lt;br&gt;&lt;div&gt;[Components&lt;span&gt;]&lt;/span&gt;&lt;/div&gt;&lt;br&gt;&lt;div&gt;红包雨管理组件&lt;/div&gt;" style="rounded=1;whiteSpace=wrap;html=1;labelBackgroundColor=none;fillColor=#f5f5f5;fontColor=#333333;align=center;arcSize=10;strokeColor=#666666;points=[[0.25,0,0],[0.5,0,0],[0.75,0,0],[1,0.25,0],[1,0.5,0],[1,0.75,0],[0.75,1,0],[0.5,1,0],[0.25,1,0],[0,0.75,0],[0,0.5,0],[0,0.25,0]];" vertex="1" parent="1">
          <mxGeometry x="320" y="1460" width="160" height="110.00000000000001" as="geometry" />
        </mxCell>
        <mxCell id="TqZwTsvRdTDMUk5iA1MC-6" value="&lt;div style=&quot;text-align: left&quot;&gt;红包雨角标&lt;/div&gt;&lt;div style=&quot;text-align: left&quot;&gt;[Business]&lt;/div&gt;" style="rounded=1;whiteSpace=wrap;html=1;labelBackgroundColor=none;fillColor=#ffffff;fontColor=#000000;align=left;arcSize=5;strokeColor=#000000;verticalAlign=bottom;points=[[0.25,0,0],[0.5,0,0],[0.75,0,0],[1,0.25,0],[1,0.5,0],[1,0.75,0],[0.75,1,0],[0.5,1,0],[0.25,1,0],[0,0.75,0],[0,0.5,0],[0,0.25,0]];glass=0;" vertex="1" parent="1">
          <mxGeometry x="94" y="1599" width="640" height="221" as="geometry" />
        </mxCell>
        <mxCell id="TqZwTsvRdTDMUk5iA1MC-10" value="收到相&lt;br&gt;关回调" style="edgeStyle=orthogonalEdgeStyle;rounded=0;orthogonalLoop=1;jettySize=auto;html=1;exitX=1;exitY=0.5;exitDx=0;exitDy=0;exitPerimeter=0;entryX=0;entryY=0.5;entryDx=0;entryDy=0;entryPerimeter=0;dashed=1;strokeColor=#000000;strokeWidth=1;" edge="1" parent="1" source="TqZwTsvRdTDMUk5iA1MC-7" target="TqZwTsvRdTDMUk5iA1MC-9">
          <mxGeometry relative="1" as="geometry" />
        </mxCell>
        <mxCell id="TqZwTsvRdTDMUk5iA1MC-7" value="&lt;b&gt;注册长链接/广告回调&lt;br&gt;&lt;/b&gt;" style="rounded=1;whiteSpace=wrap;html=1;labelBackgroundColor=none;fillColor=#dae8fc;fontColor=#000000;align=center;arcSize=10;strokeColor=#6c8ebf;points=[[0.25,0,0],[0.5,0,0],[0.75,0,0],[1,0.25,0],[1,0.5,0],[1,0.75,0],[0.75,1,0],[0.5,1,0],[0.25,1,0],[0,0.75,0],[0,0.5,0],[0,0.25,0]];glass=0;" vertex="1" parent="1">
          <mxGeometry x="150" y="1630" width="140" height="60" as="geometry" />
        </mxCell>
        <mxCell id="TqZwTsvRdTDMUk5iA1MC-8" value="&lt;div style=&quot;text-align: left&quot;&gt;&lt;div style=&quot;text-align: center&quot;&gt;&lt;br&gt;&lt;/div&gt;&lt;/div&gt;" style="edgeStyle=orthogonalEdgeStyle;rounded=0;html=1;jettySize=auto;orthogonalLoop=1;strokeColor=#000000;strokeWidth=1;fontColor=#000000;jumpStyle=none;dashed=1;exitX=0;exitY=0.5;exitDx=0;exitDy=0;exitPerimeter=0;entryX=0.45;entryY=0.033;entryDx=0;entryDy=0;entryPerimeter=0;" edge="1" parent="1" source="TqZwTsvRdTDMUk5iA1MC-5" target="TqZwTsvRdTDMUk5iA1MC-7">
          <mxGeometry width="200" relative="1" as="geometry">
            <mxPoint x="340" y="907.5" as="sourcePoint" />
            <mxPoint x="200" y="1235" as="targetPoint" />
          </mxGeometry>
        </mxCell>
        <mxCell id="TqZwTsvRdTDMUk5iA1MC-13" style="edgeStyle=orthogonalEdgeStyle;rounded=0;orthogonalLoop=1;jettySize=auto;html=1;exitX=1;exitY=0.5;exitDx=0;exitDy=0;exitPerimeter=0;entryX=0;entryY=0.5;entryDx=0;entryDy=0;entryPerimeter=0;dashed=1;strokeColor=#000000;strokeWidth=1;" edge="1" parent="1" source="TqZwTsvRdTDMUk5iA1MC-9" target="TqZwTsvRdTDMUk5iA1MC-11">
          <mxGeometry relative="1" as="geometry" />
        </mxCell>
        <mxCell id="TqZwTsvRdTDMUk5iA1MC-9" value="&lt;b&gt;判断收到数据&lt;br&gt;是否有效&lt;br&gt;&lt;/b&gt;" style="rounded=1;whiteSpace=wrap;html=1;labelBackgroundColor=none;fillColor=#dae8fc;fontColor=#000000;align=center;arcSize=10;strokeColor=#6c8ebf;points=[[0.25,0,0],[0.5,0,0],[0.75,0,0],[1,0.25,0],[1,0.5,0],[1,0.75,0],[0.75,1,0],[0.5,1,0],[0.25,1,0],[0,0.75,0],[0,0.5,0],[0,0.25,0]];glass=0;" vertex="1" parent="1">
          <mxGeometry x="350" y="1630" width="140" height="60" as="geometry" />
        </mxCell>
        <mxCell id="TqZwTsvRdTDMUk5iA1MC-16" style="edgeStyle=orthogonalEdgeStyle;rounded=0;orthogonalLoop=1;jettySize=auto;html=1;exitX=0.5;exitY=1;exitDx=0;exitDy=0;exitPerimeter=0;entryX=0.5;entryY=0;entryDx=0;entryDy=0;entryPerimeter=0;dashed=1;strokeColor=#000000;strokeWidth=1;" edge="1" parent="1" source="TqZwTsvRdTDMUk5iA1MC-11" target="TqZwTsvRdTDMUk5iA1MC-15">
          <mxGeometry relative="1" as="geometry" />
        </mxCell>
        <mxCell id="TqZwTsvRdTDMUk5iA1MC-11" value="&lt;b&gt;判断是否显示角标&lt;br&gt;&lt;/b&gt;" style="rounded=1;whiteSpace=wrap;html=1;labelBackgroundColor=none;fillColor=#dae8fc;fontColor=#000000;align=center;arcSize=10;strokeColor=#6c8ebf;points=[[0.25,0,0],[0.5,0,0],[0.75,0,0],[1,0.25,0],[1,0.5,0],[1,0.75,0],[0.75,1,0],[0.5,1,0],[0.25,1,0],[0,0.75,0],[0,0.5,0],[0,0.25,0]];glass=0;" vertex="1" parent="1">
          <mxGeometry x="530" y="1630" width="140" height="60" as="geometry" />
        </mxCell>
        <mxCell id="TqZwTsvRdTDMUk5iA1MC-18" style="edgeStyle=orthogonalEdgeStyle;rounded=0;orthogonalLoop=1;jettySize=auto;html=1;exitX=0;exitY=0.5;exitDx=0;exitDy=0;exitPerimeter=0;dashed=1;strokeColor=#000000;strokeWidth=1;" edge="1" parent="1" source="TqZwTsvRdTDMUk5iA1MC-15" target="TqZwTsvRdTDMUk5iA1MC-17">
          <mxGeometry relative="1" as="geometry" />
        </mxCell>
        <mxCell id="TqZwTsvRdTDMUk5iA1MC-15" value="&lt;b&gt;角标位置处理&lt;br&gt;&lt;/b&gt;" style="rounded=1;whiteSpace=wrap;html=1;labelBackgroundColor=none;fillColor=#dae8fc;fontColor=#000000;align=center;arcSize=10;strokeColor=#6c8ebf;points=[[0.25,0,0],[0.5,0,0],[0.75,0,0],[1,0.25,0],[1,0.5,0],[1,0.75,0],[0.75,1,0],[0.5,1,0],[0.25,1,0],[0,0.75,0],[0,0.5,0],[0,0.25,0]];glass=0;" vertex="1" parent="1">
          <mxGeometry x="530" y="1724" width="140" height="60" as="geometry" />
        </mxCell>
        <mxCell id="TqZwTsvRdTDMUk5iA1MC-17" value="&lt;b&gt;角标倒计时处理&lt;br&gt;&lt;/b&gt;" style="rounded=1;whiteSpace=wrap;html=1;labelBackgroundColor=none;fillColor=#dae8fc;fontColor=#000000;align=center;arcSize=10;strokeColor=#6c8ebf;points=[[0.25,0,0],[0.5,0,0],[0.75,0,0],[1,0.25,0],[1,0.5,0],[1,0.75,0],[0.75,1,0],[0.5,1,0],[0.25,1,0],[0,0.75,0],[0,0.5,0],[0,0.25,0]];glass=0;" vertex="1" parent="1">
          <mxGeometry x="350" y="1724" width="140" height="60" as="geometry" />
        </mxCell>
        <mxCell id="TqZwTsvRdTDMUk5iA1MC-19" value="&lt;b&gt;红包雨计时器&lt;/b&gt;&lt;br&gt;&lt;div&gt;&lt;br&gt;&lt;/div&gt;&lt;br&gt;&lt;div&gt;Description&lt;/div&gt;" style="rounded=1;whiteSpace=wrap;html=1;labelBackgroundColor=none;fillColor=#dae8fc;fontColor=#000000;align=center;arcSize=10;strokeColor=#6c8ebf;points=[[0.25,0,0],[0.5,0,0],[0.75,0,0],[1,0.25,0],[1,0.5,0],[1,0.75,0],[0.75,1,0],[0.5,1,0],[0.25,1,0],[0,0.75,0],[0,0.5,0],[0,0.25,0]];glass=0;" vertex="1" parent="1">
          <mxGeometry x="480" y="1150" width="160" height="70" as="geometry" />
        </mxCell>
        <mxCell id="TqZwTsvRdTDMUk5iA1MC-21" value="MGRedPacketManager&lt;br&gt;&lt;div&gt;[Components&lt;span&gt;]&lt;/span&gt;&lt;/div&gt;&lt;br&gt;&lt;div&gt;红包雨管理组件&lt;/div&gt;" style="rounded=1;whiteSpace=wrap;html=1;labelBackgroundColor=none;fillColor=#f5f5f5;fontColor=#333333;align=center;arcSize=10;strokeColor=#666666;points=[[0.25,0,0],[0.5,0,0],[0.75,0,0],[1,0.25,0],[1,0.5,0],[1,0.75,0],[0.75,1,0],[0.5,1,0],[0.25,1,0],[0,0.75,0],[0,0.5,0],[0,0.25,0]];" vertex="1" parent="1">
          <mxGeometry x="326" y="1900" width="160" height="110.00000000000001" as="geometry" />
        </mxCell>
        <mxCell id="TqZwTsvRdTDMUk5iA1MC-22" value="&lt;div style=&quot;text-align: left&quot;&gt;红包雨主页面&lt;/div&gt;&lt;div style=&quot;text-align: left&quot;&gt;[Business]&lt;/div&gt;" style="rounded=1;whiteSpace=wrap;html=1;labelBackgroundColor=none;fillColor=#ffffff;fontColor=#000000;align=left;arcSize=5;strokeColor=#000000;verticalAlign=bottom;points=[[0.25,0,0],[0.5,0,0],[0.75,0,0],[1,0.25,0],[1,0.5,0],[1,0.75,0],[0.75,1,0],[0.5,1,0],[0.25,1,0],[0,0.75,0],[0,0.5,0],[0,0.25,0]];glass=0;" vertex="1" parent="1">
          <mxGeometry x="100" y="2039" width="640" height="331" as="geometry" />
        </mxCell>
        <mxCell id="TqZwTsvRdTDMUk5iA1MC-23" value="" style="edgeStyle=orthogonalEdgeStyle;rounded=0;orthogonalLoop=1;jettySize=auto;html=1;exitX=1;exitY=0.5;exitDx=0;exitDy=0;exitPerimeter=0;entryX=0;entryY=0.5;entryDx=0;entryDy=0;entryPerimeter=0;dashed=1;strokeColor=#000000;strokeWidth=1;" edge="1" parent="1" source="TqZwTsvRdTDMUk5iA1MC-24" target="TqZwTsvRdTDMUk5iA1MC-27">
          <mxGeometry relative="1" as="geometry" />
        </mxCell>
        <mxCell id="TqZwTsvRdTDMUk5iA1MC-24" value="&lt;b&gt;开始红包雨&lt;br&gt;&lt;/b&gt;" style="rounded=1;whiteSpace=wrap;html=1;labelBackgroundColor=none;fillColor=#dae8fc;fontColor=#000000;align=center;arcSize=10;strokeColor=#6c8ebf;points=[[0.25,0,0],[0.5,0,0],[0.75,0,0],[1,0.25,0],[1,0.5,0],[1,0.75,0],[0.75,1,0],[0.5,1,0],[0.25,1,0],[0,0.75,0],[0,0.5,0],[0,0.25,0]];glass=0;" vertex="1" parent="1">
          <mxGeometry x="156" y="2070" width="140" height="60" as="geometry" />
        </mxCell>
        <mxCell id="TqZwTsvRdTDMUk5iA1MC-25" value="&lt;div style=&quot;text-align: left&quot;&gt;&lt;div style=&quot;text-align: center&quot;&gt;&lt;br&gt;&lt;/div&gt;&lt;/div&gt;" style="edgeStyle=orthogonalEdgeStyle;rounded=0;html=1;jettySize=auto;orthogonalLoop=1;strokeColor=#000000;strokeWidth=1;fontColor=#000000;jumpStyle=none;dashed=1;exitX=0;exitY=0.5;exitDx=0;exitDy=0;exitPerimeter=0;entryX=0.45;entryY=0.033;entryDx=0;entryDy=0;entryPerimeter=0;" edge="1" parent="1" source="TqZwTsvRdTDMUk5iA1MC-21" target="TqZwTsvRdTDMUk5iA1MC-24">
          <mxGeometry width="200" relative="1" as="geometry">
            <mxPoint x="346" y="1347.5" as="sourcePoint" />
            <mxPoint x="206" y="1675" as="targetPoint" />
          </mxGeometry>
        </mxCell>
        <mxCell id="TqZwTsvRdTDMUk5iA1MC-26" style="edgeStyle=orthogonalEdgeStyle;rounded=0;orthogonalLoop=1;jettySize=auto;html=1;exitX=1;exitY=0.5;exitDx=0;exitDy=0;exitPerimeter=0;entryX=0;entryY=0.5;entryDx=0;entryDy=0;entryPerimeter=0;dashed=1;strokeColor=#000000;strokeWidth=1;" edge="1" parent="1" source="TqZwTsvRdTDMUk5iA1MC-27" target="TqZwTsvRdTDMUk5iA1MC-29">
          <mxGeometry relative="1" as="geometry" />
        </mxCell>
        <mxCell id="TqZwTsvRdTDMUk5iA1MC-27" value="&lt;b&gt;确认显示皮肤&lt;br&gt;&lt;/b&gt;" style="rounded=1;whiteSpace=wrap;html=1;labelBackgroundColor=none;fillColor=#dae8fc;fontColor=#000000;align=center;arcSize=10;strokeColor=#6c8ebf;points=[[0.25,0,0],[0.5,0,0],[0.75,0,0],[1,0.25,0],[1,0.5,0],[1,0.75,0],[0.75,1,0],[0.5,1,0],[0.25,1,0],[0,0.75,0],[0,0.5,0],[0,0.25,0]];glass=0;" vertex="1" parent="1">
          <mxGeometry x="356" y="2070" width="140" height="60" as="geometry" />
        </mxCell>
        <mxCell id="TqZwTsvRdTDMUk5iA1MC-28" style="edgeStyle=orthogonalEdgeStyle;rounded=0;orthogonalLoop=1;jettySize=auto;html=1;exitX=0.5;exitY=1;exitDx=0;exitDy=0;exitPerimeter=0;entryX=0.5;entryY=0;entryDx=0;entryDy=0;entryPerimeter=0;dashed=1;strokeColor=#000000;strokeWidth=1;" edge="1" parent="1" source="TqZwTsvRdTDMUk5iA1MC-29" target="TqZwTsvRdTDMUk5iA1MC-31">
          <mxGeometry relative="1" as="geometry" />
        </mxCell>
        <mxCell id="TqZwTsvRdTDMUk5iA1MC-29" value="&lt;b&gt;预警倒计时&lt;br&gt;&lt;/b&gt;" style="rounded=1;whiteSpace=wrap;html=1;labelBackgroundColor=none;fillColor=#dae8fc;fontColor=#000000;align=center;arcSize=10;strokeColor=#6c8ebf;points=[[0.25,0,0],[0.5,0,0],[0.75,0,0],[1,0.25,0],[1,0.5,0],[1,0.75,0],[0.75,1,0],[0.5,1,0],[0.25,1,0],[0,0.75,0],[0,0.5,0],[0,0.25,0]];glass=0;" vertex="1" parent="1">
          <mxGeometry x="536" y="2070" width="140" height="60" as="geometry" />
        </mxCell>
        <mxCell id="TqZwTsvRdTDMUk5iA1MC-30" style="edgeStyle=orthogonalEdgeStyle;rounded=0;orthogonalLoop=1;jettySize=auto;html=1;exitX=0;exitY=0.5;exitDx=0;exitDy=0;exitPerimeter=0;dashed=1;strokeColor=#000000;strokeWidth=1;" edge="1" parent="1" source="TqZwTsvRdTDMUk5iA1MC-31" target="TqZwTsvRdTDMUk5iA1MC-32">
          <mxGeometry relative="1" as="geometry" />
        </mxCell>
        <mxCell id="TqZwTsvRdTDMUk5iA1MC-31" value="&lt;b&gt;红包雨开始&lt;br&gt;&lt;/b&gt;" style="rounded=1;whiteSpace=wrap;html=1;labelBackgroundColor=none;fillColor=#dae8fc;fontColor=#000000;align=center;arcSize=10;strokeColor=#6c8ebf;points=[[0.25,0,0],[0.5,0,0],[0.75,0,0],[1,0.25,0],[1,0.5,0],[1,0.75,0],[0.75,1,0],[0.5,1,0],[0.25,1,0],[0,0.75,0],[0,0.5,0],[0,0.25,0]];glass=0;" vertex="1" parent="1">
          <mxGeometry x="536" y="2164" width="140" height="60" as="geometry" />
        </mxCell>
        <mxCell id="TqZwTsvRdTDMUk5iA1MC-34" style="edgeStyle=orthogonalEdgeStyle;rounded=0;orthogonalLoop=1;jettySize=auto;html=1;exitX=0;exitY=0.5;exitDx=0;exitDy=0;exitPerimeter=0;entryX=1;entryY=0.5;entryDx=0;entryDy=0;entryPerimeter=0;dashed=1;strokeColor=#000000;strokeWidth=1;" edge="1" parent="1" source="TqZwTsvRdTDMUk5iA1MC-32" target="TqZwTsvRdTDMUk5iA1MC-33">
          <mxGeometry relative="1" as="geometry" />
        </mxCell>
        <mxCell id="TqZwTsvRdTDMUk5iA1MC-32" value="&lt;b&gt;红包/动画/点击处理&lt;br&gt;&lt;/b&gt;" style="rounded=1;whiteSpace=wrap;html=1;labelBackgroundColor=none;fillColor=#dae8fc;fontColor=#000000;align=center;arcSize=10;strokeColor=#6c8ebf;points=[[0.25,0,0],[0.5,0,0],[0.75,0,0],[1,0.25,0],[1,0.5,0],[1,0.75,0],[0.75,1,0],[0.5,1,0],[0.25,1,0],[0,0.75,0],[0,0.5,0],[0,0.25,0]];glass=0;" vertex="1" parent="1">
          <mxGeometry x="356" y="2164" width="140" height="60" as="geometry" />
        </mxCell>
        <mxCell id="TqZwTsvRdTDMUk5iA1MC-37" style="edgeStyle=orthogonalEdgeStyle;rounded=0;orthogonalLoop=1;jettySize=auto;html=1;exitX=0.5;exitY=1;exitDx=0;exitDy=0;exitPerimeter=0;entryX=0.5;entryY=0;entryDx=0;entryDy=0;entryPerimeter=0;dashed=1;strokeColor=#000000;strokeWidth=1;" edge="1" parent="1" source="TqZwTsvRdTDMUk5iA1MC-33" target="TqZwTsvRdTDMUk5iA1MC-35">
          <mxGeometry relative="1" as="geometry" />
        </mxCell>
        <mxCell id="TqZwTsvRdTDMUk5iA1MC-33" value="&lt;b&gt;红包雨结束&lt;br&gt;&lt;/b&gt;" style="rounded=1;whiteSpace=wrap;html=1;labelBackgroundColor=none;fillColor=#dae8fc;fontColor=#000000;align=center;arcSize=10;strokeColor=#6c8ebf;points=[[0.25,0,0],[0.5,0,0],[0.75,0,0],[1,0.25,0],[1,0.5,0],[1,0.75,0],[0.75,1,0],[0.5,1,0],[0.25,1,0],[0,0.75,0],[0,0.5,0],[0,0.25,0]];glass=0;" vertex="1" parent="1">
          <mxGeometry x="156" y="2164" width="140" height="60" as="geometry" />
        </mxCell>
        <mxCell id="TqZwTsvRdTDMUk5iA1MC-35" value="&lt;b&gt;结果展示&lt;br&gt;&lt;/b&gt;" style="rounded=1;whiteSpace=wrap;html=1;labelBackgroundColor=none;fillColor=#dae8fc;fontColor=#000000;align=center;arcSize=10;strokeColor=#6c8ebf;points=[[0.25,0,0],[0.5,0,0],[0.75,0,0],[1,0.25,0],[1,0.5,0],[1,0.75,0],[0.75,1,0],[0.5,1,0],[0.25,1,0],[0,0.75,0],[0,0.5,0],[0,0.25,0]];glass=0;" vertex="1" parent="1">
          <mxGeometry x="156" y="2260" width="140" height="60" as="geometry" />
        </mxCell>
      </root>
    </mxGraphModel>
  </diagram>
</mxfile>
